# xmcd CD database file
#
# Track frame offsets:
#	150
#	16923
#	30573
#	51174
#	78870
#	94493
#	106972
#	121809
#	139599
#	154089
#	174344
#	186499
#	202609
#
# Disc length: 3064 seconds
#
# Revision: 0
# Processed by: cddbd v1.5.1PL0 Copyright (c) Steve Scherf et al.
# Submitted via: CDex 1.40Release
#
DISCID=9c0bf60d
DTITLE=Bone Dry - Bluesanova
DYEAR=2002
DGENRE=Blues
TTITLE0=Beer drinkin´ woman
TTITLE1=Superficial woman
TTITLE2=Living on love
TTITLE3=Now
TTITLE4=Mind your own business
TTITLE5=You can love yourself
TTITLE6=Goodbye old living
TTITLE7=Help me
TTITLE8=Five to twelve
TTITLE9=When I love you
TTITLE10=Who´s crying now
TTITLE11=Blues with a feeling
TTITLE12=Walkin´ Blues
EXTD=YEAR: 2002 ID3G: 0
EXTT0=
EXTT1=
EXTT2=
EXTT3=
EXTT4=
EXTT5=
EXTT6=
EXTT7=
EXTT8=
EXTT9=
EXTT10=
EXTT11=
EXTT12=
PLAYORDER=
